<?xml version="1.0" encoding="UTF-8"?>
<!DOCTYPE svg PUBLIC "-//W3C//DTD SVG 1.1//EN" "http://www.w3.org/Graphics/SVG/1.1/DTD/svg11.dtd">
<!-- Creator: CorelDRAW -->
<svg xmlns="http://www.w3.org/2000/svg" xml:space="preserve" width="22px" height="22px" style="shape-rendering:geometricPrecision; text-rendering:geometricPrecision; image-rendering:optimizeQuality; fill-rule:evenodd; clip-rule:evenodd"
viewBox="0 0 6.82666 6.82666"
 xmlns:xlink="http://www.w3.org/1999/xlink">
 <defs>
  <style type="text/css">
   <![CDATA[
    .fil2 {fill:none}
    .fil0 {fill:#FF5722}
    .fil1 {fill:#FFFFFE;fill-rule:nonzero}
   ]]>
  </style>
 </defs>
 <g id="Layer_x0020_1">
  <metadata id="CorelCorpID_0Corel-Layer"/>
  <rect class="fil0" width="6.82666" height="6.82666"/>
  <path class="fil1" d="M1.12 0.906661c-0.0589094,0 -0.106669,0.0477598 -0.106669,0.106669 0,0.0589094 0.0477598,0.106669 0.106669,0.106669 1.26658,0 2.41326,0.513382 3.24327,1.34339 0.830012,0.830012 1.34339,1.97669 1.34339,3.24327 0,0.0589094 0.0477598,0.106669 0.106669,0.106669 0.0589094,0 0.106669,-0.0477598 0.106669,-0.106669 0,-1.32546 -0.537268,-2.52547 -1.4059,-3.3941 -0.86863,-0.86863 -2.06864,-1.4059 -3.3941,-1.4059z"/>
  <path class="fil1" d="M1.12 2.32888c-0.0589094,0 -0.106669,0.0477598 -0.106669,0.106669 0,0.0589094 0.0477598,0.106669 0.106669,0.106669 0.873846,0 1.66496,0.354193 2.23761,0.926835 0.572642,0.572646 0.926835,1.36376 0.926835,2.23761 0,0.0589094 0.0477598,0.106669 0.106669,0.106669 0.0589094,0 0.106669,-0.0477598 0.106669,-0.106669 0,-0.932732 -0.378079,-1.77718 -0.989339,-2.38844 -0.611264,-0.61126 -1.45571,-0.989339 -2.38844,-0.989339z"/>
  <path class="fil1" d="M1.12 3.7511c-0.0589094,0 -0.106669,0.0477598 -0.106669,0.106669 0,0.0589094 0.0477598,0.106669 0.106669,0.106669 0.48111,0 0.916669,0.195004 1.23194,0.510276 0.315272,0.315276 0.510276,0.750835 0.510276,1.23194 0,0.0589094 0.0477598,0.106669 0.106669,0.106669 0.0589094,0 0.106669,-0.0477598 0.106669,-0.106669 0,-0.539996 -0.21889,-1.02889 -0.57278,-1.38278 -0.353894,-0.35389 -0.842783,-0.57278 -1.38278,-0.57278z"/>
  <path class="fil1" d="M1.53576 4.66181c0.173705,0 0.330984,0.0704213 0.444831,0.184268 0.113846,0.113846 0.184268,0.271126 0.184268,0.444831 0,0.173705 -0.0704173,0.33098 -0.184268,0.444827 -0.113846,0.11385 -0.271122,0.184268 -0.444831,0.184268 -0.173709,0 -0.330984,-0.0704173 -0.444831,-0.184264 -0.113846,-0.113846 -0.184264,-0.271122 -0.184264,-0.444831 0,-0.173709 0.0704173,-0.330984 0.184268,-0.444831 0.113846,-0.11385 0.271122,-0.184268 0.444827,-0.184268zm0.293996 0.335102c-0.0752283,-0.0752283 -0.179177,-0.121764 -0.293996,-0.121764 -0.114819,0 -0.218764,0.0465315 -0.293992,0.121764 -0.0752283,0.0752244 -0.121764,0.179173 -0.121764,0.293996 0,0.114823 0.0465315,0.218768 0.12176,0.293996 0.0752283,0.0752283 0.179173,0.12176 0.293996,0.12176 0.114823,0 0.218772,-0.0465354 0.293996,-0.121764 0.0752323,-0.0752283 0.121764,-0.179173 0.121764,-0.293992 0,-0.114819 -0.0465354,-0.218768 -0.121764,-0.293996z"/>
  <rect class="fil2" width="6.82666" height="6.82666"/>
 </g>
</svg>
